<svg width="80" height="81" viewBox="0 0 80 81" fill="none" xmlns="http://www.w3.org/2000/svg">
<rect x="0.5" y="1" width="79" height="79" rx="39.5" fill="#1B75E8" fill-opacity="0.1"/>
<rect x="0.5" y="1" width="79" height="79" rx="39.5" stroke="#0032BC" stroke-dasharray="3 2"/>
<path d="M34.888 51.0695C34.7168 51.0695 34.5442 51.0106 34.4035 50.8907L29.56 46.7665C29.3929 46.6241 29.2969 46.4161 29.2969 46.1964C29.2969 45.9771 29.3934 45.7691 29.56 45.6267L34.4035 41.5024C34.718 41.2343 35.1904 41.2723 35.4586 41.5868C35.7263 41.9017 35.6887 42.3741 35.3738 42.6419L31.1998 46.1964L35.3738 49.7509C35.6887 50.019 35.7263 50.4914 35.4586 50.8059C35.3103 50.9801 35.0998 51.0695 34.888 51.0695Z" fill="#234D95"/>
<path d="M44.4491 51.0695C44.2373 51.0695 44.0268 50.9801 43.8789 50.8059C43.6108 50.4914 43.6488 50.019 43.9633 49.7509L48.1372 46.1964L43.9633 42.6419C43.6488 42.3741 43.6108 41.9017 43.8789 41.5868C44.1467 41.2723 44.6195 41.2343 44.9336 41.5024L49.777 45.6267C49.9441 45.7691 50.0402 45.9771 50.0402 46.1964C50.0402 46.4161 49.9441 46.6241 49.777 46.7665L44.9336 50.8907C44.7928 51.0106 44.6203 51.0695 44.4491 51.0695Z" fill="#234D95"/>
<path d="M37.9538 54.1628C37.9024 54.1628 37.8506 54.1574 37.7984 54.1465C37.3941 54.0613 37.1351 53.6641 37.2203 53.2598L40.2389 38.9278C40.3241 38.5235 40.7209 38.2645 41.1257 38.3497C41.53 38.4349 41.789 38.8317 41.7038 39.2364L38.6851 53.5685C38.6108 53.921 38.3 54.1628 37.9538 54.1628Z" fill="#234D95"/>
<path d="M57.3116 61.9702H22.0256C19.2547 61.9702 17 59.716 17 56.9446V26.9958C17 24.2249 19.2547 21.9702 22.0256 21.9702H57.3116C60.0825 21.9702 62.3372 24.2249 62.3372 26.9958V56.9446C62.3372 59.716 60.0825 61.9702 57.3116 61.9702ZM22.0256 23.4672C20.08 23.4672 18.497 25.0502 18.497 26.9958V56.9446C18.497 58.8902 20.08 60.4732 22.0256 60.4732H57.3116C59.2572 60.4732 60.8402 58.8902 60.8402 56.9446V26.9958C60.8402 25.0502 59.2572 23.4672 57.3116 23.4672H22.0256Z" fill="#234D95"/>
<path d="M61.5887 33.9555H17.7485C17.335 33.9555 17 33.6205 17 33.207C17 32.7939 17.335 32.4585 17.7485 32.4585H61.5887C62.0022 32.4585 62.3372 32.7939 62.3372 33.207C62.3372 33.6205 62.0022 33.9555 61.5887 33.9555Z" fill="#234D95"/>
<path d="M29.7886 30.3736C28.4829 30.3736 27.4199 29.3106 27.4199 28.0049C27.4199 26.6988 28.4829 25.6362 29.7886 25.6362C31.0947 25.6362 32.1573 26.6988 32.1573 28.0049C32.1573 29.3106 31.0947 30.3736 29.7886 30.3736ZM29.7886 27.1332C29.3083 27.1332 28.9169 27.5242 28.9169 28.0049C28.9169 28.4857 29.3083 28.8766 29.7886 28.8766C30.2694 28.8766 30.6603 28.4857 30.6603 28.0049C30.6603 27.5242 30.2694 27.1332 29.7886 27.1332Z" fill="#234D95"/>
<path d="M22.5113 30.3502C21.2052 30.3502 20.1426 29.2876 20.1426 27.9815C20.1426 26.6754 21.2052 25.6128 22.5113 25.6128C23.8174 25.6128 24.88 26.6754 24.88 27.9815C24.88 29.2876 23.8174 30.3502 22.5113 30.3502ZM22.5113 27.1098C22.0309 27.1098 21.6396 27.5011 21.6396 27.9815C21.6396 28.4622 22.0309 28.8532 22.5113 28.8532C22.992 28.8532 23.383 28.4622 23.383 27.9815C23.383 27.5011 22.992 27.1098 22.5113 27.1098Z" fill="#234D95"/>
<path d="M37.0665 30.3966C35.7608 30.3966 34.6982 29.334 34.6982 28.0279C34.6982 26.7223 35.7608 25.6597 37.0665 25.6597C38.3726 25.6597 39.4352 26.7223 39.4352 28.0279C39.4352 29.334 38.3726 30.3966 37.0665 30.3966ZM37.0665 27.1562C36.5862 27.1562 36.1952 27.5472 36.1952 28.0279C36.1952 28.5087 36.5862 28.8996 37.0665 28.8996C37.5473 28.8996 37.9382 28.5087 37.9382 28.0279C37.9382 27.5472 37.5473 27.1562 37.0665 27.1562Z" fill="#234D95"/>
</svg>
