<svg width="80" height="81" viewBox="0 0 80 81" fill="none" xmlns="http://www.w3.org/2000/svg">
<rect x="0.5" y="1" width="79" height="79" rx="39.5" fill="#1B75E8" fill-opacity="0.1"/>
<rect x="0.5" y="1" width="79" height="79" rx="39.5" stroke="#234D95" stroke-dasharray="3 2"/>
<path d="M55.9999 43.9702V42.6368C56.3679 42.6368 56.6666 42.3384 56.6666 41.9702V37.9702C56.6666 37.6019 56.3679 37.3035 55.9999 37.3035H52.3999L52.2708 36.8027C51.976 35.6574 51.5182 34.5603 50.9106 33.5454L50.644 33.0993L53.1999 30.5389C53.4572 30.2811 53.4572 29.8634 53.1999 29.6056L50.3687 26.7702C50.1072 26.521 49.6966 26.521 49.4351 26.7702L46.8744 29.3309L46.4286 29.0642C45.4122 28.4564 44.314 27.9986 43.1671 27.7035L42.6666 27.5733V23.9702C42.6666 23.602 42.3682 23.3035 42 23.3035H38C37.6317 23.3035 37.3333 23.602 37.3333 23.9702V27.5702L36.8325 27.6996C35.6872 27.9942 34.5901 28.452 33.5747 29.0587L33.1286 29.3257L30.5687 26.7702C30.307 26.5189 29.8937 26.5189 29.632 26.7702L26.8 29.6014C26.6755 29.7257 26.6055 29.8944 26.6055 30.0702C26.6055 30.2462 26.6755 30.4147 26.8 30.5389L29.3607 33.0993L29.094 33.5454C28.4867 34.5603 28.0286 35.6574 27.7341 36.8027L27.6034 37.3035H24C23.6318 37.3035 23.3333 37.6019 23.3333 37.9702V41.9702C23.3333 42.3384 23.6318 42.6368 24 42.6368V43.9702C22.8956 43.9702 22 43.0746 22 41.9702V37.9702C22 36.8657 22.8956 35.9702 24 35.9702H26.5794C26.8544 35.0483 27.2263 34.1582 27.6888 33.315L25.8555 31.4817C25.4805 31.1074 25.2698 30.5996 25.2698 30.0702C25.2698 29.5408 25.4805 29.033 25.8555 28.659L28.6888 25.8257C29.4781 25.0702 30.7226 25.0702 31.512 25.8257L33.3448 27.6582C34.188 27.196 35.0784 26.8249 36 26.5502V23.9702C36 22.8658 36.8955 21.9702 38 21.9702H42C43.1044 21.9702 44 22.8658 44 23.9702V26.5502C44.9218 26.8249 45.8117 27.1968 46.6552 27.659L48.4885 25.8257C49.2781 25.0702 50.5223 25.0702 51.3119 25.8257L54.1447 28.6582C54.5195 29.0324 54.7299 29.5397 54.7299 30.0694C54.7299 30.5991 54.5195 31.1069 54.1447 31.4809L52.3114 33.3142C52.7736 34.1579 53.1452 35.0483 53.4205 35.9702H55.9999C57.1044 35.9702 57.9999 36.8657 57.9999 37.9702V41.9702C57.9999 43.0746 57.1044 43.9702 55.9999 43.9702Z" fill="#234D95"/>
<path d="M49.3336 39.9695H48.0003C48.0003 35.5513 44.4185 31.9696 40.0003 31.9696C35.5821 31.9696 32.0003 35.5513 32.0003 39.9695H30.667C30.667 34.8149 34.8456 30.6362 40.0003 30.6362C45.1547 30.6362 49.3336 34.8149 49.3336 39.9695Z" fill="#234D95"/>
<path d="M40 45.3042C37.7909 45.3042 36 43.513 36 41.3042C36 39.0951 37.7909 37.3042 40 37.3042C42.2094 37.3042 44 39.0951 44 41.3042C43.9976 43.5125 42.2083 45.3018 40 45.3042ZM40 38.6375C38.5273 38.6375 37.3333 39.8315 37.3333 41.3042C37.3333 42.7768 38.5273 43.9708 40 43.9708C41.4726 43.9708 42.6667 42.7768 42.6667 41.3042C42.6667 39.8315 41.4726 38.6375 40 38.6375Z" fill="#234D95"/>
<path d="M51.333 47.9702C49.1239 47.9702 47.333 46.179 47.333 43.9702C47.333 41.7611 49.1239 39.9702 51.333 39.9702C53.5421 39.9702 55.333 41.7611 55.333 43.9702C55.3306 46.1785 53.5413 47.9678 51.333 47.9702ZM51.333 41.3035C49.8603 41.3035 48.6663 42.4975 48.6663 43.9702C48.6663 45.4428 49.8603 46.6369 51.333 46.6369C52.8057 46.6369 53.9997 45.4428 53.9997 43.9702C53.9997 42.4975 52.8057 41.3035 51.333 41.3035Z" fill="#234D95"/>
<path d="M28.667 47.9702C26.4579 47.9702 24.667 46.179 24.667 43.9702C24.667 41.7611 26.4579 39.9702 28.667 39.9702C30.8764 39.9702 32.667 41.7611 32.667 43.9702C32.6646 46.1785 30.8753 47.9678 28.667 47.9702ZM28.667 41.3035C27.1943 41.3035 26.0003 42.4975 26.0003 43.9702C26.0003 45.4428 27.1943 46.6369 28.667 46.6369C30.1396 46.6369 31.3336 45.4428 31.3336 43.9702C31.3336 42.4975 30.1396 41.3035 28.667 41.3035Z" fill="#234D95"/>
<path d="M57.377 49.6807C56.3835 48.9979 55.2057 48.6336 53.9999 48.637H48.6666C48.3424 48.6399 48.0187 48.6693 47.6992 48.7248C47.2726 48.0576 46.7177 47.4821 46.0666 47.0308C45.969 46.9571 45.8664 46.8901 45.7593 46.831C44.8268 46.2662 43.7567 45.9688 42.6666 45.9703H37.3333C35.2945 45.963 33.3948 47.0034 32.3026 48.7248C31.9823 48.6693 31.658 48.6399 31.3333 48.637H26C24.7953 48.6336 23.6177 48.9974 22.6247 49.6794C20.9836 50.7961 20.001 52.6521 20 54.637V57.3036C20.0023 59.124 21.0615 60.7771 22.7148 61.5396C23.3252 61.8271 23.9922 61.9742 24.6667 61.9703H31.3333V60.637H25.3333V53.3037H24V60.57C23.749 60.5198 23.5052 60.4385 23.274 60.3289C22.093 59.7844 21.3359 58.6039 21.3333 57.3036V54.637C21.3349 53.0922 22.1003 51.6482 23.3773 50.7794C24.149 50.2498 25.0638 49.9677 26 49.9703H31.3333C31.4508 49.9703 31.564 49.9828 31.6786 49.9906C31.4531 50.6266 31.3362 51.2958 31.3333 51.9703V58.637C31.3357 60.4771 32.8268 61.968 34.6666 61.9703H36.6666V51.3037H35.3333V60.637H34.6666C33.5622 60.637 32.6666 59.7414 32.6666 58.637V51.9703C32.6666 49.3927 34.7562 47.3037 37.3333 47.3037H42.6666C43.5244 47.3042 44.3651 47.5417 45.0966 47.9896C45.1643 48.0266 45.2294 48.0683 45.2911 48.1141C45.9158 48.5419 46.4286 49.1136 46.7859 49.7807C47.145 50.4547 47.3333 51.2065 47.3333 51.9703V58.637C47.3333 59.7414 46.4377 60.637 45.3333 60.637H44.6666V51.3037H43.3333V61.9703H45.3333C47.1734 61.968 48.6643 60.4771 48.6666 58.637V51.9703C48.6635 51.2958 48.5471 50.6268 48.3218 49.9906C48.4367 49.9828 48.5499 49.9703 48.6666 49.9703H53.9999C54.9366 49.9677 55.8523 50.2505 56.6244 50.7807C57.9004 51.65 58.6648 53.093 58.6666 54.637V57.3036C58.6642 58.6086 57.9015 59.7924 56.7148 60.3341C56.4869 60.4419 56.2468 60.5211 55.9999 60.57V53.3037H54.6666V60.637H48.6666V61.9703H55.3333C56.0038 61.9745 56.6669 61.8292 57.2739 61.5448C58.9327 60.7846 59.9973 59.1284 59.9999 57.3036V54.637C59.9989 52.6529 59.0171 50.7977 57.377 49.6807Z" fill="#234D95"/>
<path d="M37.333 60.6362H42.6663V61.9695H37.333V60.6362Z" fill="#234D95"/>
</svg>
