<svg width="80" height="81" viewBox="0 0 80 81" fill="none" xmlns="http://www.w3.org/2000/svg">
<rect x="0.5" y="1" width="79" height="79" rx="39.5" fill="#1B75E8" fill-opacity="0.1"/>
<rect x="0.5" y="1" width="79" height="79" rx="39.5" stroke="#000F3C" stroke-dasharray="3 2"/>
<path d="M58.5688 52.8545H21.0694C19.9977 52.8545 19.1328 51.9897 19.1328 50.918V24.2388C19.1328 23.1765 20.0071 22.3022 21.0694 22.3022H58.5688C59.6404 22.3022 60.5053 23.1671 60.5053 24.2388V50.918C60.5053 51.9897 59.6404 52.8545 58.5688 52.8545ZM21.0694 23.2423C20.5241 23.2423 20.0729 23.6936 20.0729 24.2388V50.918C20.0729 51.4726 20.5241 51.9145 21.0694 51.9145H58.5688C59.1234 51.9145 59.5652 51.4632 59.5652 50.918V24.2388C59.5652 23.6936 59.114 23.2423 58.5688 23.2423H21.0694Z" fill="#000F3C"/>
<path d="M57.516 50.3353H22.1224C21.8592 50.3353 21.6523 50.1285 21.6523 49.8652V25.2918C21.6523 25.0286 21.8592 24.8218 22.1224 24.8218H57.5066C57.7699 24.8218 57.9767 25.0286 57.9767 25.2918V49.8652C57.9861 50.1285 57.7699 50.3353 57.516 50.3353ZM22.5924 49.3952H57.0366V25.7618H22.5924V49.3952Z" fill="#000F3C"/>
<path d="M34.5688 59.5949C34.4466 59.5949 34.315 59.5479 34.221 59.4445C34.0424 59.2565 34.0518 58.9557 34.2492 58.7771C37.2668 55.9756 36.0165 52.6948 35.9601 52.5538C35.8661 52.3094 35.9789 52.0368 36.2234 51.9427C36.4678 51.8487 36.7404 51.9615 36.8344 52.206C36.8532 52.2436 37.2386 53.2306 37.1916 54.6125C37.1446 55.891 36.7122 57.7618 34.8885 59.4633C34.7945 59.5573 34.6816 59.5949 34.5688 59.5949Z" fill="#000F3C"/>
<path d="M45.0701 59.5952C44.9573 59.5952 44.8445 59.5576 44.7505 59.473C42.9268 57.7808 42.4943 55.9007 42.4473 54.6222C42.4003 53.2403 42.7858 52.2532 42.8046 52.2156C42.8986 51.9712 43.1712 51.8584 43.4156 51.9524C43.66 52.0464 43.7728 52.319 43.6788 52.5635C43.6224 52.7045 42.3815 55.9853 45.3898 58.7867C45.5778 58.9653 45.5872 59.2568 45.418 59.4542C45.3239 59.5482 45.2017 59.5952 45.0701 59.5952Z" fill="#000F3C"/>
<path d="M49.2533 62.3013H30.3861C30.1228 62.3013 29.916 62.0945 29.916 61.8312V60.4775C29.916 59.4717 30.7339 58.6538 31.7398 58.6538H47.8996C48.9054 58.6538 49.7233 59.4717 49.7233 60.4775V61.8312C49.7233 62.0851 49.5165 62.3013 49.2533 62.3013ZM30.8561 61.3612H48.7832V60.4775C48.7832 59.9887 48.3884 59.5939 47.8996 59.5939H31.7398C31.2509 59.5939 30.8561 59.9887 30.8561 60.4775V61.3612Z" fill="#000F3C"/>
<path d="M31.2696 44.1965C31.185 44.1965 31.1004 44.1777 31.0252 44.1307L25.6104 40.8875C25.4694 40.8029 25.3848 40.6525 25.3848 40.4833V34.3446C25.3848 34.1754 25.4788 34.0156 25.6198 33.931C25.7608 33.8464 25.9488 33.8464 26.0898 33.9404L31.5046 37.1836C31.6456 37.2682 31.7302 37.4186 31.7302 37.5878V43.7265C31.7302 43.8957 31.6362 44.0555 31.4952 44.1401C31.4294 44.1777 31.3448 44.1965 31.2696 44.1965ZM26.3248 40.22L30.7996 42.8992V37.8511L26.3248 35.1719V40.22Z" fill="#000F3C"/>
<path d="M31.2689 44.1973C31.1843 44.1973 31.1091 44.1785 31.0338 44.1409C30.8834 44.0563 30.7988 43.9059 30.7988 43.7273V37.5886C30.7988 37.4194 30.8834 37.269 31.0244 37.1844L36.4393 33.9411C36.5803 33.8565 36.7683 33.8565 36.9093 33.9317C37.0597 34.0163 37.1443 34.1761 37.1443 34.3454V40.484C37.1443 40.6532 37.0597 40.8036 36.9187 40.8883L31.5039 44.1315C31.4381 44.1785 31.3535 44.1973 31.2689 44.1973ZM31.7389 37.8518V42.9L36.2136 40.2208V35.1726L31.7389 37.8518Z" fill="#000F3C"/>
<path d="M25.8544 34.8147C25.6852 34.8147 25.5254 34.7301 25.4408 34.5703C25.3185 34.3447 25.4031 34.0533 25.6288 33.9311L31.0436 31.0169C31.1846 30.9416 31.3538 30.9416 31.4854 31.0169L36.9002 33.9311C37.1258 34.0533 37.2104 34.3353 37.0882 34.5703C36.966 34.8053 36.684 34.8805 36.449 34.7583L31.2598 31.9663L26.0706 34.7583C26.0048 34.7959 25.9296 34.8147 25.8544 34.8147Z" fill="#000F3C"/>
<path d="M35.3305 29.6076H27.2083C26.9451 29.6076 26.7383 29.4007 26.7383 29.1375C26.7383 28.8743 26.9451 28.6675 27.2083 28.6675H35.3305C35.5937 28.6675 35.8006 28.8743 35.8006 29.1375C35.8006 29.4007 35.5937 29.6076 35.3305 29.6076Z" fill="#000F3C"/>
<path d="M33.9669 30.9701C33.8447 30.9701 33.7225 30.9231 33.6379 30.8291C33.4593 30.6505 33.4593 30.3497 33.6379 30.1617L34.6719 29.1276L33.6379 28.0935C33.4593 27.9149 33.4593 27.6141 33.6379 27.4261C33.8165 27.2381 34.1173 27.2475 34.3053 27.4261L35.659 28.808C35.8376 28.9866 35.8376 29.2874 35.659 29.4754L34.2959 30.8385C34.2019 30.9231 34.0891 30.9701 33.9669 30.9701Z" fill="#000F3C"/>
<path d="M28.5722 30.9709C28.45 30.9709 28.3278 30.9239 28.2432 30.8299L26.8801 29.4668C26.7014 29.2881 26.7014 28.9873 26.8801 28.7993L28.2432 27.4362C28.4218 27.2576 28.7226 27.2576 28.9106 27.4362C29.0892 27.6148 29.0892 27.9156 28.9106 28.1037L27.8765 29.1377L28.9106 30.1718C29.0892 30.3504 29.0892 30.6512 28.9106 30.8393C28.8166 30.9239 28.6944 30.9709 28.5722 30.9709Z" fill="#000F3C"/>
<path d="M35.3305 46.5002H27.2083C26.9451 46.5002 26.7383 46.2934 26.7383 46.0302C26.7383 45.767 26.9451 45.5601 27.2083 45.5601H35.3305C35.5937 45.5601 35.8006 45.767 35.8006 46.0302C35.8006 46.2934 35.5937 46.5002 35.3305 46.5002Z" fill="#000F3C"/>
<path d="M33.9669 47.8623C33.8447 47.8623 33.7225 47.8153 33.6379 47.7213C33.4593 47.5333 33.4593 47.2419 33.6379 47.0538L34.6719 46.0198L33.6379 44.9857C33.4593 44.7977 33.4593 44.5063 33.6379 44.3182C33.8165 44.1302 34.1173 44.1302 34.3053 44.3182L35.6684 45.6813C35.847 45.8694 35.847 46.1608 35.6684 46.3488L34.3053 47.7119C34.2019 47.8153 34.0891 47.8623 33.9669 47.8623Z" fill="#000F3C"/>
<path d="M28.5722 47.8627C28.45 47.8627 28.3278 47.8157 28.2432 47.7217L26.8801 46.3586C26.7014 46.1705 26.7014 45.8791 26.8801 45.6911L28.2432 44.328C28.4218 44.14 28.7226 44.14 28.9106 44.328C29.0892 44.516 29.0892 44.8074 28.9106 44.9955L27.8765 46.0295L28.9106 47.0636C29.0892 47.2516 29.0892 47.543 28.9106 47.7311C28.8166 47.8157 28.6944 47.8627 28.5722 47.8627Z" fill="#000F3C"/>
<path d="M42.0507 47.8622H40.4808C39.7945 47.8622 39.2305 47.3076 39.2305 46.6213V31.8152C39.2305 31.552 39.4373 31.3452 39.7005 31.3452H42.8215C43.0848 31.3452 43.2916 31.552 43.2916 31.8152V46.6119C43.301 47.2982 42.7369 47.8622 42.0507 47.8622ZM40.1799 32.2853V46.6119C40.1799 46.7812 40.321 46.9128 40.4902 46.9128H42.0507C42.2199 46.9128 42.3515 46.7718 42.3515 46.6119V32.2853H40.1799Z" fill="#000F3C"/>
<path d="M42.8309 32.2866C42.6429 32.2866 42.4643 32.1737 42.3891 31.9857L41.2704 29.0809L40.1517 31.9857C40.0577 32.2302 39.7851 32.3524 39.5406 32.2584C39.2962 32.1643 39.174 31.8917 39.268 31.6473L40.8285 27.605C40.8943 27.4264 41.073 27.3042 41.2704 27.3042C41.4678 27.3042 41.637 27.4264 41.7122 27.605L43.2727 31.6473C43.3667 31.8917 43.2445 32.1643 43.0001 32.2584C42.9437 32.2772 42.8873 32.2866 42.8309 32.2866Z" fill="#000F3C"/>
<path d="M42.8313 45.09H39.7103C39.447 45.09 39.2402 44.8831 39.2402 44.6199C39.2402 44.3567 39.447 44.1499 39.7103 44.1499H42.8313C43.0945 44.1499 43.3013 44.3567 43.3013 44.6199C43.3013 44.8831 43.0851 45.09 42.8313 45.09Z" fill="#000F3C"/>
<path d="M53.7841 29.4747H45.6243C45.3611 29.4747 45.1543 29.2679 45.1543 29.0047C45.1543 28.7415 45.3611 28.5347 45.6243 28.5347H53.7841C54.0474 28.5347 54.2542 28.7415 54.2542 29.0047C54.2542 29.2679 54.0474 29.4747 53.7841 29.4747Z" fill="#000F3C"/>
<path d="M53.7841 32.3321H45.6243C45.3611 32.3321 45.1543 32.1253 45.1543 31.8621C45.1543 31.5989 45.3611 31.3921 45.6243 31.3921H53.7841C54.0474 31.3921 54.2542 31.5989 54.2542 31.8621C54.2542 32.1253 54.0474 32.3321 53.7841 32.3321Z" fill="#000F3C"/>
<path d="M53.7841 35.1896H45.6243C45.3611 35.1896 45.1543 34.9828 45.1543 34.7195C45.1543 34.4563 45.3611 34.2495 45.6243 34.2495H53.7841C54.0474 34.2495 54.2542 34.4563 54.2542 34.7195C54.2542 34.9828 54.0474 35.1896 53.7841 35.1896Z" fill="#000F3C"/>
<path d="M53.7841 38.0489H45.6243C45.3611 38.0489 45.1543 37.8421 45.1543 37.5789C45.1543 37.3157 45.3611 37.1089 45.6243 37.1089H53.7841C54.0474 37.1089 54.2542 37.3157 54.2542 37.5789C54.2542 37.8421 54.0474 38.0489 53.7841 38.0489Z" fill="#000F3C"/>
<path d="M53.7841 40.9064H45.6243C45.3611 40.9064 45.1543 40.6995 45.1543 40.4363C45.1543 40.1731 45.3611 39.9663 45.6243 39.9663H53.7841C54.0474 39.9663 54.2542 40.1731 54.2542 40.4363C54.2542 40.6995 54.0474 40.9064 53.7841 40.9064Z" fill="#000F3C"/>
<path d="M53.7841 43.7638H45.6243C45.3611 43.7638 45.1543 43.557 45.1543 43.2938C45.1543 43.0305 45.3611 42.8237 45.6243 42.8237H53.7841C54.0474 42.8237 54.2542 43.0305 54.2542 43.2938C54.2542 43.557 54.0474 43.7638 53.7841 43.7638Z" fill="#000F3C"/>
<path d="M53.7841 46.6213H45.6243C45.3611 46.6213 45.1543 46.4145 45.1543 46.1513C45.1543 45.8881 45.3611 45.6812 45.6243 45.6812H53.7841C54.0474 45.6812 54.2542 45.8881 54.2542 46.1513C54.2542 46.4145 54.0474 46.6213 53.7841 46.6213Z" fill="#000F3C"/>
</svg>
